<svg xmlns="http://www.w3.org/2000/svg" width="27" height="33">
  <style>
    .p1 { fill: #93c5fd; }  /* Tailwind bg-blue-300 */
    .p2 { fill: #bfdbfe; }  /* Tailwind bg-blue-200 */
    .p3 { fill: #dbeafe; }  /* Tailwind bg-blue-100 */

    @media (prefers-color-scheme: dark) {
      .p1 { fill: #fff; }
      .p2 { fill: #05BDBA; }
      .p3 { fill: #05BDBA; }
    }
  </style>

  <!-- Pixel size is 3x3 -->
  <!-- Coordinates are generated according to ribbonPattern grid -->
  <rect class="p3" x="9" y="0" width="3" height="3" />
  <rect class="p3" x="12" y="0" width="3" height="3" />
  <rect class="p3" x="15" y="0" width="3" height="3" />

  <rect class="p2" x="6" y="3" width="3" height="3" />
  <rect class="p2" x="9" y="3" width="3" height="3" />
  <rect class="p2" x="12" y="3" width="3" height="3" />
  <rect class="p2" x="15" y="3" width="3" height="3" />
  <rect class="p2" x="18" y="3" width="3" height="3" />

  <rect class="p1" x="3" y="6" width="3" height="3" />
  <rect class="p1" x="6" y="6" width="3" height="3" />
  <rect class="p1" x="18" y="6" width="3" height="3" />
  <rect class="p1" x="21" y="6" width="3" height="3" />

  <rect class="p1" x="3" y="9" width="3" height="3" />
  <rect class="p1" x="6" y="9" width="3" height="3" />
  <rect class="p1" x="18" y="9" width="3" height="3" />
  <rect class="p1" x="21" y="9" width="3" height="3" />

  <rect class="p2" x="6" y="12" width="3" height="3" />
  <rect class="p2" x="21" y="12" width="3" height="3" />

  <rect class="p2" x="6" y="15" width="3" height="3" />
  <rect class="p2" x="9" y="15" width="3" height="3" />
  <rect class="p2" x="12" y="15" width="3" height="3" />
  <rect class="p2" x="15" y="15" width="3" height="3" />
  <rect class="p2" x="18" y="15" width="3" height="3" />

  <rect class="p3" x="9" y="18" width="3" height="3" />
  <rect class="p3" x="12" y="18" width="3" height="3" />
  <rect class="p3" x="15" y="18" width="3" height="3" />

  <rect class="p2" x="6" y="21" width="3" height="3" />
  <rect class="p1" x="9" y="21" width="3" height="3" />
  <rect class="p1" x="15" y="21" width="3" height="3" />
  <rect class="p2" x="18" y="21" width="3" height="3" />

  <rect class="p1" x="3" y="24" width="3" height="3" />
  <rect class="p1" x="6" y="24" width="3" height="3" />
  <rect class="p1" x="18" y="24" width="3" height="3" />
  <rect class="p1" x="21" y="24" width="3" height="3" />

  <rect class="p1" x="0" y="27" width="3" height="3" />
  <rect class="p1" x="3" y="27" width="3" height="3" />
  <rect class="p2" x="6" y="27" width="3" height="3" />
  <rect class="p2" x="18" y="27" width="3" height="3" />
  <rect class="p1" x="21" y="27" width="3" height="3" />
  <rect class="p1" x="24" y="27" width="3" height="3" />

  <rect class="p2" x="3" y="30" width="3" height="3" />
  <rect class="p2" x="24" y="30" width="3" height="3" />
</svg>
